# xmcd
#
# Track frame offsets:
#	150
#	14788
#	28509
#	42735
#	58437
#	71862
#	87333
#	99915
#	114031
#	127870
#	140604
#	156600
#	176900
#	193835
#
# Disc length: 2762 seconds
#
# Revision: 0
# Processed by: cddbd v1.5.2PL0 Copyright (c) Steve Scherf et al.
# Submitted via: dBpowerAMP V4.0
#
DISCID=d30ac80e
DTITLE=Peão Nativa Vol. II - Peão Nativa Vol. II
DYEAR=1900
DGENRE=
TTITLE0=Agora Aguenta Nois (ao vivo) - Zezé Di Camargo and Luciano
TTITLE1=Gosto de mulher meu amigo de pinga - Guilherme and Santiago
TTITLE2=De buteco em buteco - Jad and Jefferson
TTITLE3=Bebo pa carai - Gino e Geno
TTITLE4=Abre a Janela - Edson and Hudson
TTITLE5=Que pescar que nada - Bruno and Marrone
TTITLE6=Esqueci o nome dela - Delley and Dorivan
TTITLE7=Se a casa cair - Teodoro and Sampaio
TTITLE8=A costela - Ney and Nando
TTITLE9=Eu de cá você de lá - Rionegro and Solimões
TTITLE10=Brega Demais - Rick e Renner
TTITLE11=Animal - João Pedro and Giuliano
TTITLE12=Barquinho - Tradição
TTITLE13=Na muvuca da neguinha - Os 4 Gaudérios
EXTD=
EXTT0=
EXTT1=
EXTT2=
EXTT3=
EXTT4=
EXTT5=
EXTT6=
EXTT7=
EXTT8=
EXTT9=
EXTT10=
EXTT11=
EXTT12=
EXTT13=
PLAYORDER=
